<?xml version="1.0" encoding="UTF-8" standalone="no"?>
<!DOCTYPE svg PUBLIC "-//W3C//DTD SVG 1.1//EN" "http://www.w3.org/Graphics/SVG/1.1/DTD/svg11.dtd">
<svg width="100%" height="100%" viewBox="0 0 721 372" version="1.1" xmlns="http://www.w3.org/2000/svg" xmlns:xlink="http://www.w3.org/1999/xlink" xml:space="preserve" xmlns:serif="http://www.serif.com/" style="fill-rule:evenodd;clip-rule:evenodd;stroke-linejoin:round;stroke-miterlimit:2;">
    <defs><style>path,rect,text{fill:#000}@media (prefers-color-scheme: dark) {
  svg > * {
    filter: invert(1);
  }
}</style></defs>
    <g transform="matrix(1,0,0,1,5,10)">
        <g transform="matrix(1,0,0,1,0,-50)">
            <path d="M254.038,254.459L106.564,254.459L106.564,253.459L253.552,253.459L281.887,229.306L282.716,230.013L254.037,254.459L254.038,254.459Z" style="fill-rule:nonzero;"/>
        </g>
        <g transform="matrix(0.737179,0,0,1,3.327718,-103)">
            <rect x="92.564" y="197.458" width="156" height="1" style=""/>
        </g>
        <g transform="matrix(1,0,0,1,5,-31)">
            <path d="M181.271,39.306L55.564,39.306L55.564,40.306L180.857,40.306L205.01,64.459L205.717,63.752L181.271,39.306Z" style="fill-rule:nonzero;"/>
        </g>
        <g transform="matrix(1,0,0,1,43,-20)">
            <rect x="460.564" y="166.458" width="102" height="1" style=""/>
        </g>
        <g transform="matrix(1,0,0,1,41,-21)">
            <rect x="490.564" y="137.458" width="71" height="1" style=""/>
        </g>
        <g transform="matrix(1,0,0,1,30,-30)">
            <rect x="460.564" y="107.458" width="102" height="1" style=""/>
        </g>
        <g transform="matrix(1,0,0,1,42,-21)">
            <path d="M562.564,195.458L437.857,195.458L415.064,172.665L415.064,149.458L416.064,149.458L416.064,172.251L438.271,194.458L562.564,194.458L562.564,195.458Z" style="fill-rule:nonzero;"/>
        </g>
        <g transform="matrix(1,0,0,0.442946,-35,10.165456)">
            <path d="M287.51,125.958L288.51,125.958L288.51,57.165L310.564,35.112L309.857,34.405L287.51,56.751L287.51,125.958Z" style="fill-rule:nonzero;"/>
        </g>
        <g transform="matrix(1,0,0,1.557776,34,-65.980943)">
            <path d="M453.814,62.715L453.115,62.001L463.36,51.958L563.564,51.958L563.564,52.958L463.768,52.958L453.814,62.715Z" style="fill-rule:nonzero;"/>
        </g>
        <g transform="matrix(1,0,0,1,31,-28)">
            <path d="M487.318,81.212L486.611,80.505L496.157,70.958L570.564,70.958L570.564,71.958L496.571,71.958L487.318,81.212Z" style="fill-rule:nonzero;"/>
        </g>
        <g transform="matrix(1,0,0,1,10,-30)">
            <path d="M177.101,81.212L177.564,80.505L171.315,70.958L122.611,70.958L122.611,71.958L171.044,71.958L177.101,81.212Z" style="fill-rule:nonzero;"/>
        </g>
        <g transform="matrix(1,0,0,1,20,-42)">
            <path d="M562.564,257.458L438.157,257.458L438.011,257.313L406.811,226.213L407.516,225.504L438.571,256.458L562.564,256.458L562.564,257.458Z" style="fill-rule:nonzero;"/>
        </g>
        <g transform="matrix(1,0,0,1,598.04,19.92)">
            <text x="0px" y="0px" style="font-family:'Balthazar-Regular', 'Balthazar';font-size:16px;">RT: Attack</text>
        </g>
        <g transform="matrix(1,0,0,1,605.04,120.92)">
            <text x="0px" y="0px" style="font-family:'Balthazar-Regular', 'Balthazar';font-size:16px;">○: Crouch</text>
        </g>
        <g transform="matrix(1,0,0,1,609.04,151.92)">
            <text x="0px" y="0px" style="font-family:'Balthazar-Regular', 'Balthazar';font-size:16px;">×: Jump</text>
        </g>
        <g transform="matrix(1,0,0,1,9.04,197.92)">
            <text x="0px" y="0px" style="font-family:'Balthazar-Regular', 'Balthazar';font-size:16px;">LS+△: Quicksave</text>
        </g>
        <g transform="matrix(1,0,0,1,585.04,217.92)">
            <text x="0px" y="0px" style="font-family:'Balthazar-Regular', 'Balthazar';font-size:16px;">RS: Force Creep Mode</text>
        </g>
        <g transform="matrix(1,0,0,1,8.04,218.92)">
            <text x="0px" y="0px" style="font-family:'Balthazar-Regular', 'Balthazar';font-size:16px;">LS+○: Quickload</text>
        </g>
        <g transform="matrix(1,0,0,1,-196.199771,30.24624)">
            <g transform="matrix(1,0,0,1,248.24,15.674)">
                <text x="0px" y="0px" style="font-family:'Balthazar-Regular', 'Balthazar';font-size:16px;">LB+LS: Lean</text>
            </g>
            <g transform="matrix(1,0,0,1,248.24,31.962)">
                <text x="0px" y="0px" style="font-family:'Balthazar-Regular', 'Balthazar';font-size:16px;">LB+DPad: Zoom</text>
            </g>
        </g>
        <g transform="matrix(1,0,0,1,4.04,11.92)">
            <text x="0px" y="0px" style="font-family:'Balthazar-Regular', 'Balthazar';font-size:16px;">LT: Block</text>
        </g>
        <g transform="matrix(1,0,0,1,0.24,118.92)">
            <text x="0px" y="0px" style="font-family:'Balthazar-Regular', 'Balthazar';font-size:12px;">Cycle Weapons</text>
        </g>
        <g transform="matrix(1,0,0,1,0.24,132.92)">
            <text x="0px" y="0px" style="font-family:'Balthazar-Regular', 'Balthazar';font-size:12px;">Cycle Items</text>
        </g>
        <g transform="matrix(1,0,0,1,608.04,178.92)">
            <text x="0px" y="0px" style="font-family:'Balthazar-Regular', 'Balthazar';font-size:16px;">□: Use/Drop</text>
        </g>
        <g transform="matrix(1,0,0,1,594.04,82.92)">
            <text x="0px" y="0px" style="font-family:'Balthazar-Regular', 'Balthazar';font-size:16px;">△: Toggle Weapon</text>
        </g>
        <g transform="matrix(1,0,0,1,603.04,47.92)">
            <text x="0px" y="0px" style="font-family:'Balthazar-Regular', 'Balthazar';font-size:16px;">RB: Menu</text>
        </g>
        <g transform="matrix(1,0,0,1,277.04,28.208)">
            <text x="0px" y="0px" style="font-family:'Balthazar-Regular', 'Balthazar';font-size:16px;">Select: Map</text>
        </g>
    </g>
    <g id="Controller" transform="matrix(0.97348,0,0,0.97348,576.374055,98.969649)">
        <path d="M0,181.225C-0.056,181.778 -0.109,182.305 -0.157,182.805C-1.654,198.091 -4.428,209.406 -8.403,216.436C-11.508,221.928 -16.261,227.24 -21.442,231.009C-26.616,234.771 -31.257,236.298 -34.172,235.193L-34.205,235.181L-34.227,235.184C-38.171,235.178 -41.681,231.224 -44.659,223.434C-45.445,221.249 -46.464,218.403 -47.639,215.121C-54.139,196.974 -65.018,166.599 -68.006,159.507C-83.004,123.212 -97.176,99.3 -101.161,92.84C-109.226,78.547 -120.656,64.552 -129.002,54.333C-133.333,49.03 -136.753,44.842 -138.199,42.419C-141.422,36.647 -144.465,26.477 -142.43,16.817C-139.982,4.969 -132.15,-32.016 -132.071,-32.391C-130.711,-39.62 -126.223,-44.69 -119.759,-46.301L-119.756,-46.302C-118.418,-46.673 -115.341,-46.977 -115.305,-46.981C-114.118,-47.04 -93.906,-44.186 -84.921,-42.506C-80.864,-41.748 -75.264,-40.534 -69.849,-39.36C-63.192,-37.918 -56.905,-36.555 -55.23,-36.438L-55.23,-36.437C-54.958,-36.397 -54.566,-36.36 -54.112,-36.318C-52.112,-36.134 -48.387,-35.79 -47.669,-34.233C-47.491,-33.846 -47.307,-33.436 -47.112,-33.002C-46.316,-31.229 -45.325,-29.023 -43.802,-26.339C-37.295,-13.68 -29.331,7.269 -25.162,18.63C-21.466,28.704 -13.187,56.241 -7.886,79.68C-2.48,103.581 0.135,128.058 0.828,138.752C2.174,159.533 0.813,173.112 0,181.225M-57.222,239.787C-58.48,239.83 -60.214,239.187 -62.446,233.749C-68.107,218.541 -87.886,171.891 -97.928,155.141C-102.898,146.85 -108.33,141.034 -114.533,137.359C-120.895,133.59 -127.889,132.176 -135.922,133.029C-135.929,133.029 -135.936,133.029 -135.943,133.03C-137.419,133.152 -139.317,133.505 -141.327,133.88C-144.428,134.458 -147.943,135.114 -151.247,135.204C-155.05,135.308 -161.341,135.151 -166.397,135.023C-168.642,134.966 -170.582,134.917 -171.909,134.901C-174.045,134.876 -185.416,134.888 -197.454,134.901C-209.272,134.913 -221.492,134.927 -224.208,134.901L-224.21,134.901C-226.928,134.927 -239.147,134.913 -250.964,134.901C-263.002,134.888 -274.371,134.876 -276.509,134.901C-277.837,134.917 -279.776,134.966 -282.021,135.023C-287.076,135.151 -293.366,135.308 -297.171,135.204C-300.476,135.114 -303.99,134.458 -307.092,133.88C-309.102,133.505 -310.999,133.152 -312.476,133.03C-312.479,133.03 -312.481,133.03 -312.483,133.029C-322.33,131.827 -330.839,134.21 -338.486,140.314C-352.107,151.377 -364.057,179.999 -372.782,200.899C-374.353,204.674 -376.255,209.367 -378.269,214.335C-381.147,221.438 -384.123,228.781 -386.652,234.73C-388.265,238.545 -390.123,240.035 -391.182,239.79L-413.582,235.307C-407.086,233.917 -404.004,225.199 -401.03,216.737C-400.816,216.129 -400.604,215.523 -400.39,214.922C-399.973,213.748 -399.405,212.136 -398.716,210.18C-393.899,196.51 -383.877,168.066 -377.452,152.828C-370.206,135.64 -354.482,104.254 -343.506,86.698C-336.763,75.914 -328.574,65.787 -321.348,56.852C-317.133,51.64 -313.152,46.717 -310.258,42.602C-308.147,39.411 -305.109,32.97 -305.487,22.825C-304.444,28.325 -302.457,33.173 -299.55,37.246C-294.155,44.804 -287.333,48.549 -278.074,49.03L-173.023,49.03C-172.928,49.031 -172.835,49.031 -172.741,49.031C-163.187,49.031 -155.681,45.653 -150.43,38.989C-147.041,34.688 -144.665,29.119 -143.33,22.444C-143.638,32.527 -139.41,40.766 -138.415,42.547C-136.958,44.988 -133.533,49.183 -129.196,54.493C-120.855,64.705 -109.433,78.69 -101.376,92.969C-97.392,99.429 -83.228,123.327 -68.237,159.604C-65.251,166.692 -54.374,197.061 -47.875,215.206C-46.699,218.488 -45.68,221.335 -44.894,223.522C-42.097,230.837 -38.812,234.809 -35.119,235.363L-57.222,239.787ZM-59.821,240.513C-61.643,239.409 -63.908,237.242 -68.112,228.933C-70.665,223.884 -74.824,214.329 -80.472,200.537L-80.79,199.762C-81.196,198.776 -83.025,194.066 -85.145,188.611C-88.629,179.642 -92.965,168.48 -93.778,166.635C-94.138,165.815 -94.546,164.798 -94.977,163.722C-96.131,160.844 -97.567,157.262 -99.293,154.431C-101.836,150.262 -106.743,144.038 -110.237,141.251C-116.214,136.48 -122.769,133.752 -129.787,133.091C-124.299,133.348 -119.306,134.825 -114.66,137.577C-108.493,141.23 -103.091,147.018 -98.143,155.271C-88.108,172.009 -68.34,218.637 -62.679,233.842C-60.569,238.984 -58.849,239.954 -57.542,240.035C-58.439,240.786 -59.01,240.896 -59.821,240.513M-338.181,141.251C-341.675,144.038 -346.582,150.262 -349.125,154.431C-350.851,157.262 -352.286,160.843 -353.44,163.721C-353.871,164.797 -354.279,165.815 -354.64,166.635C-355.455,168.484 -359.802,179.676 -363.296,188.668C-365.404,194.094 -367.224,198.78 -367.627,199.762L-367.956,200.563C-373.603,214.348 -377.758,223.893 -380.307,228.933C-384.509,237.242 -386.775,239.409 -388.586,240.507C-389.402,240.894 -389.97,240.788 -390.856,240.052C-389.659,239.969 -387.933,238.405 -386.422,234.829C-383.892,228.878 -380.916,221.534 -378.037,214.431C-376.024,209.463 -374.122,204.77 -372.551,200.997C-363.836,180.123 -351.901,151.534 -338.329,140.512C-331.995,135.455 -325.063,132.98 -317.259,132.99C-324.798,133.407 -331.817,136.171 -338.181,141.251M-426.975,231.009C-432.157,227.24 -436.91,221.928 -440.015,216.436C-443.989,209.409 -446.763,198.094 -448.261,182.805C-448.31,182.306 -448.363,181.78 -448.418,181.228C-449.231,173.114 -450.592,159.536 -449.246,138.752C-448.553,128.058 -445.938,103.58 -440.532,79.68C-435.233,56.247 -426.953,28.708 -423.256,18.63C-419.088,7.269 -411.124,-13.68 -404.619,-26.335C-403.094,-29.019 -402.104,-31.225 -401.308,-32.997C-401.112,-33.433 -400.927,-33.845 -400.749,-34.233C-400.031,-35.79 -396.307,-36.134 -394.306,-36.318C-393.853,-36.36 -393.461,-36.397 -393.188,-36.437L-393.187,-36.438L-393.187,-36.437C-393.184,-36.438 -393.18,-36.439 -393.177,-36.439L-393.095,-36.451L-393.095,-36.453C-391.355,-36.744 -385.236,-37.989 -378.753,-39.308C-372.536,-40.573 -366.106,-41.881 -362.284,-42.608C-353.747,-44.255 -334.372,-47.092 -333.114,-46.981C-333.083,-46.978 -330.001,-46.674 -328.663,-46.302C-323.962,-44.942 -318.136,-40.04 -316.448,-32.49L-306.444,16.054C-304.048,30.119 -307.936,38.637 -310.465,42.459C-313.351,46.563 -317.329,51.483 -321.542,56.692C-328.772,65.632 -336.967,75.766 -343.718,86.563C-354.7,104.129 -370.432,135.532 -377.683,152.729C-384.11,167.975 -394.134,196.423 -398.952,210.095C-399.641,212.051 -400.209,213.663 -400.626,214.838C-400.839,215.438 -401.053,216.044 -401.266,216.652C-404.304,225.298 -407.446,234.235 -414.202,235.183L-414.213,235.181L-414.246,235.193C-417.164,236.298 -421.802,234.771 -426.975,231.009M-392.109,-43.894C-389.281,-44.599 -373.032,-48.512 -362.887,-50.397C-354.123,-52.288 -347.708,-53.089 -343.025,-53.674C-339.478,-54.117 -336.665,-54.471 -334.323,-55.099L-333.245,-47.234C-335.441,-47.196 -354.02,-44.46 -362.33,-42.856C-366.154,-42.129 -372.585,-40.821 -378.803,-39.556C-385.196,-38.255 -391.232,-37.027 -393.06,-36.715L-392.109,-43.894ZM-365.969,-56.617C-351.917,-59.715 -340.464,-57.387 -335.56,-56.391C-334.88,-56.205 -334.535,-55.889 -334.38,-55.345C-336.707,-54.72 -339.514,-54.367 -343.056,-53.925C-347.744,-53.339 -354.165,-52.538 -362.936,-50.644C-372.953,-48.784 -388.922,-44.945 -392.053,-44.168C-391.247,-47.172 -380.166,-53.028 -365.969,-56.617M-292.05,-51.445L-290.949,-51.532C-269.407,-53.355 -238.27,-54.035 -223.703,-54.035C-206.36,-54.094 -177.236,-53.232 -157.468,-51.532L-156.367,-51.445C-152.585,-51.148 -146.876,-50.7 -144.377,-49.943L-144.377,-49.942C-138.415,-48.408 -135.927,-44.922 -136.058,-38.284C-136.136,-34.342 -136.829,-31.262 -137.498,-28.283C-137.693,-27.415 -137.894,-26.517 -138.077,-25.614L-148.537,23.792C-149.362,27.436 -151.563,32.468 -155.266,35.659C-158.66,38.585 -162.507,41.9 -172.113,41.9L-277.695,41.976C-283.253,41.976 -288.358,39.926 -293.304,35.709C-296.674,32.836 -299.118,28.407 -300.185,23.24C-303.132,8.141 -311.921,-32.088 -312.008,-32.486C-313.697,-43.086 -311.39,-48.143 -304.042,-49.942L-304.042,-49.943L-304.035,-49.944C-301.568,-50.698 -295.84,-51.148 -292.05,-51.445M-131.223,-36.297C-131.277,-41.363 -133.457,-44.631 -138.229,-46.817C-139.382,-48.14 -140.971,-49.114 -143.034,-49.805C-138.019,-49.298 -125.093,-47.957 -120.231,-46.428C-125.364,-45.013 -129.225,-41.423 -131.223,-36.297M-131.895,-34.232C-132.088,-37.675 -134.391,-40.363 -135.969,-41.344C-136.238,-43.371 -136.856,-45.027 -137.863,-46.359C-133.32,-44.122 -131.338,-40.788 -131.473,-35.617L-131.464,-35.617C-131.621,-35.166 -131.765,-34.705 -131.895,-34.232M-317.04,-35.306C-317.369,-40.61 -315.411,-43.975 -310.533,-46.462C-311.547,-45.172 -312.2,-43.561 -312.528,-41.596C-314.64,-40.281 -316.419,-37.148 -316.717,-34.372C-316.821,-34.686 -316.922,-35.002 -317.04,-35.306M-310.115,-46.943L-310.12,-46.954C-315.28,-44.493 -317.455,-41.174 -317.312,-35.947C-319.681,-41.487 -324.276,-45.141 -328.215,-46.419C-323.401,-47.943 -310.551,-49.283 -305.466,-49.797C-307.426,-49.149 -308.959,-48.209 -310.115,-46.943M-143.228,20.666L-143.24,20.664C-144.487,28.081 -146.972,34.194 -150.626,38.831C-155.828,45.433 -163.266,48.779 -172.742,48.779C-172.834,48.779 -172.929,48.778 -173.022,48.778L-278.068,48.778C-287.238,48.301 -294,44.59 -299.347,37.098C-302.551,32.607 -304.642,27.171 -305.559,20.942C-305.59,20.735 -305.614,20.573 -305.633,20.46L-305.634,20.461C-305.756,19.038 -305.933,17.562 -306.197,16.007L-316.203,-32.544C-316.297,-32.963 -316.408,-33.371 -316.526,-33.774C-316.446,-36.521 -314.701,-39.793 -312.589,-41.237C-312.931,-38.844 -312.813,-35.944 -312.254,-32.439C-312.165,-32.034 -303.377,8.192 -300.43,23.29C-299.352,28.514 -296.879,32.993 -293.465,35.903C-288.473,40.16 -283.314,42.228 -277.695,42.228L-172.113,42.153C-162.414,42.153 -158.531,38.805 -155.104,35.851C-151.353,32.62 -149.126,27.532 -148.292,23.847L-137.832,-25.563C-137.649,-26.464 -137.448,-27.36 -137.254,-28.227C-136.582,-31.218 -135.887,-34.312 -135.808,-38.279C-135.789,-39.26 -135.832,-40.166 -135.928,-41.016C-134.26,-39.884 -131.915,-36.947 -132.14,-33.283L-132.132,-33.282C-132.195,-33.004 -132.262,-32.727 -132.316,-32.442C-132.395,-32.069 -140.227,4.916 -142.675,16.765C-142.953,18.086 -143.121,19.385 -143.228,20.666M-114.1,-54.791C-112.215,-54.304 -108.418,-54.018 -105.047,-53.766C-102.996,-53.612 -101.225,-53.48 -100.269,-53.327C-92.917,-52.714 -79.411,-49.955 -69.55,-47.939C-63.674,-46.739 -59.032,-45.79 -57.421,-45.64L-57.414,-45.711C-56.766,-45.064 -56.385,-44.477 -56.321,-43.979L-55.356,-36.703C-57.192,-36.877 -63.313,-38.202 -69.796,-39.608C-75.213,-40.782 -80.815,-41.996 -84.875,-42.755C-93.629,-44.392 -113.039,-47.151 -115.173,-47.231L-114.1,-54.791ZM-112.844,-56.393C-107.953,-57.388 -96.5,-59.715 -82.452,-56.618C-70.662,-53.637 -61.018,-49.093 -57.622,-45.917C-59.395,-46.122 -63.877,-47.038 -69.5,-48.187C-79.368,-50.203 -92.882,-52.964 -100.239,-53.578C-101.196,-53.731 -102.972,-53.864 -105.028,-54.017C-108.235,-54.257 -112.198,-54.556 -114.059,-55.041C-113.954,-55.828 -113.653,-56.174 -112.844,-56.393M1.078,138.737C0.384,128.034 -2.233,103.54 -7.641,79.623C-12.945,56.174 -21.229,28.622 -24.927,18.542C-29.098,7.176 -37.066,-13.784 -43.582,-26.46C-45.102,-29.137 -46.09,-31.338 -46.884,-33.106C-47.08,-33.542 -47.264,-33.952 -47.442,-34.339C-48.221,-36.028 -51.895,-36.367 -54.089,-36.57C-54.489,-36.607 -54.841,-36.639 -55.1,-36.674L-56.073,-44.012C-56.46,-47.036 -67.798,-53.173 -82.395,-56.863C-96.497,-59.974 -107.987,-57.638 -112.924,-56.634C-113.861,-56.379 -114.228,-55.941 -114.329,-54.962L-115.427,-47.222C-115.969,-47.167 -118.531,-46.895 -119.784,-46.556C-124.536,-48.195 -138.829,-49.635 -143.535,-50.109L-144.31,-50.186C-146.803,-50.948 -152.547,-51.399 -156.348,-51.696L-157.448,-51.783C-176.625,-53.432 -204.593,-54.29 -222.1,-54.29C-222.644,-54.29 -223.181,-54.289 -223.704,-54.287C-238.274,-54.287 -269.42,-53.608 -290.969,-51.783L-292.069,-51.696C-295.87,-51.399 -301.615,-50.948 -304.084,-50.191L-304.882,-50.109C-309.587,-49.635 -323.881,-48.195 -328.634,-46.556C-329.886,-46.895 -332.448,-47.167 -332.991,-47.222L-334.096,-55.284C-334.257,-56.007 -334.675,-56.411 -335.524,-56.641C-340.43,-57.638 -351.92,-59.975 -366.027,-56.862C-380.621,-53.173 -391.958,-47.035 -392.346,-44.013L-393.318,-36.674C-393.578,-36.639 -393.929,-36.607 -394.329,-36.57C-396.524,-36.367 -400.197,-36.028 -400.975,-34.339C-401.155,-33.951 -401.34,-33.538 -401.536,-33.101C-402.33,-31.334 -403.318,-29.135 -404.839,-26.456C-411.352,-13.784 -419.321,7.176 -423.491,18.542C-427.19,28.627 -435.474,56.181 -440.777,79.623C-446.186,103.539 -448.802,128.034 -449.496,138.737C-450.844,159.539 -449.481,173.132 -448.667,181.252C-448.611,181.805 -448.559,182.331 -448.51,182.83C-447.009,198.154 -444.224,209.502 -440.232,216.56C-433.616,228.265 -420.492,237.767 -414.192,235.443L-391.268,240.031C-390.166,241.022 -389.459,241.2 -388.468,240.729C-386.614,239.606 -384.315,237.413 -380.084,229.047C-377.532,224.002 -373.374,214.451 -367.725,200.66L-367.397,199.859C-366.992,198.874 -365.171,194.187 -363.063,188.761C-359.57,179.77 -355.223,168.581 -354.411,166.737C-354.048,165.913 -353.64,164.894 -353.208,163.816C-352.058,160.946 -350.627,157.375 -348.912,154.563C-346.38,150.413 -341.498,144.219 -338.026,141.448C-330.384,135.35 -321.798,132.596 -312.495,133.282C-311.033,133.403 -309.14,133.755 -307.138,134.129C-304.027,134.708 -300.501,135.366 -297.178,135.457C-293.368,135.559 -287.072,135.403 -282.014,135.275C-279.77,135.218 -277.832,135.17 -276.506,135.154C-274.372,135.128 -263,135.14 -250.964,135.154C-239.149,135.166 -226.93,135.179 -224.209,135.154C-221.489,135.18 -209.271,135.166 -197.454,135.154C-185.417,135.141 -174.047,135.129 -171.912,135.154C-170.586,135.17 -168.648,135.218 -166.403,135.275C-161.345,135.404 -155.05,135.56 -151.24,135.457C-147.916,135.366 -144.391,134.708 -141.281,134.129C-139.278,133.755 -137.386,133.403 -135.924,133.282C-126.621,132.597 -118.034,135.35 -110.392,141.448C-106.92,144.219 -102.038,150.413 -99.507,154.563C-97.791,157.376 -96.36,160.947 -95.209,163.817C-94.777,164.895 -94.369,165.913 -94.006,166.737C-93.197,168.578 -88.861,179.737 -85.378,188.703C-83.258,194.16 -81.428,198.871 -81.021,199.859L-80.704,200.633C-75.053,214.432 -70.891,223.992 -68.334,229.047C-64.103,237.413 -61.804,239.606 -59.939,240.735C-59.6,240.896 -59.294,240.98 -58.993,240.98C-58.423,240.98 -57.871,240.679 -57.149,240.031L-34.226,235.443C-27.925,237.768 -14.802,228.265 -8.186,216.56C-4.193,209.5 -1.408,198.152 0.092,182.83C0.141,182.33 0.194,181.804 0.249,181.25C1.063,173.13 2.426,159.538 1.078,138.737" style="fill-rule:nonzero;"/>
        <g transform="matrix(1,0,0,1,-86.413593,45.287096)">
            <path d="M0,29.08C-8.011,29.08 -14.528,22.558 -14.528,14.54C-14.528,6.524 -8.011,0.001 0,0.001C8.011,0.001 14.528,6.524 14.528,14.54C14.528,22.558 8.011,29.08 0,29.08M0,-0.252C-8.149,-0.252 -14.779,6.384 -14.779,14.54C-14.779,22.697 -8.149,29.332 0,29.332C8.149,29.332 14.779,22.697 14.779,14.54C14.779,6.384 8.149,-0.252 0,-0.252" style="fill-rule:nonzero;"/>
        </g>
        <g transform="matrix(1,0,0,1,-53.821796,12.769499)">
            <path d="M0,29.08C-8.011,29.08 -14.529,22.558 -14.529,14.54C-14.529,6.524 -8.011,0.001 0,0.001C8.011,0.001 14.528,6.524 14.528,14.54C14.528,22.558 8.011,29.08 0,29.08M0,-0.252C-8.149,-0.252 -14.779,6.384 -14.779,14.54C-14.779,22.697 -8.149,29.332 0,29.332C8.149,29.332 14.779,22.697 14.779,14.54C14.779,6.384 8.149,-0.252 0,-0.252" style="fill-rule:nonzero;"/>
        </g>
        <g transform="matrix(1,0,0,1,-86.312493,-19.747098)">
            <path d="M0,29.079C-8.011,29.079 -14.529,22.557 -14.529,14.539C-14.529,6.523 -8.011,0 0,0C8.011,0 14.529,6.523 14.529,14.539C14.529,22.557 8.011,29.079 0,29.079M0,-0.253C-8.149,-0.253 -14.779,6.383 -14.779,14.539C-14.779,22.696 -8.149,29.332 0,29.332C8.149,29.332 14.779,22.696 14.779,14.539C14.779,6.383 8.149,-0.253 0,-0.253" style="fill-rule:nonzero;"/>
        </g>
        <g transform="matrix(1,0,0,1,-126.66139,-25.488798)">
            <path d="M0,8.434L2.076,-1.182L2.077,-1.189C2.444,-3.573 4.504,-5.283 6.844,-5.283C7.088,-5.283 7.335,-5.265 7.583,-5.227C8.864,-5.029 9.989,-4.343 10.751,-3.294C11.505,-2.256 11.813,-0.986 11.619,0.275L9.542,9.898C9.136,12.53 6.665,14.339 4.037,13.936C2.756,13.738 1.63,13.052 0.868,12.002C0.114,10.965 -0.194,9.695 0,8.434M3.999,14.185C4.26,14.226 4.519,14.245 4.775,14.245C7.236,14.245 9.404,12.446 9.788,9.944L11.865,0.321C12.071,-1.014 11.747,-2.351 10.953,-3.443C10.151,-4.546 8.968,-5.269 7.621,-5.476C4.852,-5.905 2.258,-3.999 1.83,-1.232L-0.246,8.388C-0.451,9.723 -0.128,11.059 0.666,12.152C1.468,13.256 2.651,13.978 3.999,14.185" style="fill-rule:nonzero;"/>
        </g>
        <g transform="matrix(1,0,0,1,-118.853791,12.820799)">
            <path d="M0,29.079C-8.011,29.079 -14.529,22.557 -14.529,14.539C-14.529,6.523 -8.011,0 0,0C8.011,0 14.528,6.523 14.528,14.539C14.528,22.557 8.011,29.079 0,29.079M0,-0.253C-8.149,-0.253 -14.779,6.383 -14.779,14.539C-14.779,22.696 -8.149,29.332 0,29.332C8.149,29.332 14.779,22.696 14.779,14.539C14.779,6.383 8.149,-0.253 0,-0.253" style="fill-rule:nonzero;"/>
        </g>
        <g transform="matrix(1,0,0,1,-220.784682,130.987089)">
            <path d="M0,1.255C-0.195,1.407 -0.505,1.487 -0.898,1.487L-6.153,1.487C-6.591,1.487 -6.939,1.406 -7.16,1.252C-7.337,1.129 -7.43,0.961 -7.43,0.767C-7.43,0.295 -6.905,-0.233 -6.203,-0.233L-0.746,-0.233C-0.201,-0.233 0.238,0.313 0.238,0.765C0.238,0.904 0.197,1.101 0,1.255M-0.746,-0.485L-6.203,-0.485C-7.074,-0.485 -7.68,0.175 -7.68,0.767C-7.68,1.044 -7.546,1.291 -7.303,1.46C-7.036,1.646 -6.649,1.74 -6.153,1.74L-0.898,1.74C-0.443,1.74 -0.089,1.644 0.153,1.456C0.373,1.284 0.489,1.045 0.489,0.765C0.489,0.187 -0.051,-0.485 -0.746,-0.485" style="fill-rule:nonzero;"/>
        </g>
        <g transform="matrix(1,0,0,1,-215.922383,109.968691)">
            <path d="M0,3.996L-16.675,3.996C-17.776,3.996 -18.672,3.1 -18.672,1.999C-18.672,0.897 -17.776,0.001 -16.675,0.001L0,0.001C1.102,0.001 1.997,0.897 1.997,1.999C1.997,3.1 1.102,3.996 0,3.996M0,-0.252L-16.675,-0.252C-17.914,-0.252 -18.922,0.758 -18.922,1.999C-18.922,3.239 -17.914,4.248 -16.675,4.248L0,4.248C1.239,4.248 2.248,3.239 2.248,1.999C2.248,0.758 1.239,-0.252 0,-0.252" style="fill-rule:nonzero;"/>
        </g>
        <g transform="matrix(1,0,0,1,-153.486788,62.016795)">
            <path d="M0,52.09C-14.35,52.09 -26.024,40.406 -26.024,26.045C-26.024,11.684 -14.35,0.001 0,0.001C14.35,0.001 26.024,11.684 26.024,26.045C26.024,40.406 14.35,52.09 0,52.09M0,-0.252C-14.488,-0.252 -26.274,11.545 -26.274,26.045C-26.274,40.546 -14.488,52.342 0,52.342C14.488,52.342 26.274,40.546 26.274,26.045C26.274,11.545 14.488,-0.252 0,-0.252" style="fill-rule:nonzero;"/>
        </g>
        <g transform="matrix(1,0,0,1,-153.486788,54.875396)">
            <path d="M0,66.374C-18.285,66.374 -33.162,51.486 -33.162,33.186C-33.162,14.887 -18.285,-0.001 0,-0.001C18.285,-0.001 33.161,14.887 33.161,33.186C33.161,51.486 18.285,66.374 0,66.374M0,-0.253C-18.423,-0.253 -33.412,14.748 -33.412,33.186C-33.412,51.626 -18.423,66.627 0,66.627C18.423,66.627 33.412,51.626 33.412,33.186C33.412,14.748 18.423,-0.253 0,-0.253" style="fill-rule:nonzero;"/>
        </g>
        <g transform="matrix(1,0,0,1,-153.486788,71.284794)">
            <path d="M0,33.554C-9.244,33.554 -16.763,26.028 -16.763,16.777C-16.763,7.527 -9.244,0.001 0,0.001C9.243,0.001 16.764,7.527 16.764,16.777C16.764,26.028 9.243,33.554 0,33.554M0,-0.252C-9.381,-0.252 -17.014,7.387 -17.014,16.777C-17.014,26.168 -9.381,33.806 0,33.806C9.382,33.806 17.014,26.168 17.014,16.777C17.014,7.387 9.382,-0.252 0,-0.252" style="fill-rule:nonzero;"/>
        </g>
        <g transform="matrix(1,0,0,1,-294.778276,62.013895)">
            <path d="M0,52.09C-14.35,52.09 -26.024,40.406 -26.024,26.045C-26.024,11.684 -14.35,0 0,0C14.35,0 26.024,11.684 26.024,26.045C26.024,40.406 14.35,52.09 0,52.09M0,-0.252C-14.488,-0.252 -26.274,11.545 -26.274,26.045C-26.274,40.546 -14.488,52.342 0,52.342C14.488,52.342 26.274,40.546 26.274,26.045C26.274,11.545 14.488,-0.252 0,-0.252" style="fill-rule:nonzero;"/>
        </g>
        <g transform="matrix(1,0,0,1,-294.778276,54.884196)">
            <path d="M0,66.375C-18.465,66.375 -33.488,51.487 -33.488,33.187C-33.488,14.888 -18.465,0 0,0C18.465,0 33.488,14.888 33.488,33.187C33.488,51.487 18.465,66.375 0,66.375M0,-0.253C-18.603,-0.253 -33.739,14.749 -33.739,33.187C-33.739,51.627 -18.603,66.628 0,66.628C18.603,66.628 33.739,51.627 33.739,33.187C33.739,14.749 18.603,-0.253 0,-0.253" style="fill-rule:nonzero;"/>
        </g>
        <g transform="matrix(1,0,0,1,-294.778276,71.269194)">
            <path d="M0,33.553C-9.243,33.553 -16.764,26.027 -16.764,16.777C-16.764,7.526 -9.243,0 0,0C9.243,0 16.763,7.526 16.763,16.777C16.763,26.027 9.243,33.553 0,33.553M0,-0.252C-9.382,-0.252 -17.014,7.387 -17.014,16.777C-17.014,26.166 -9.382,33.805 0,33.805C9.381,33.805 17.014,26.166 17.014,16.777C17.014,7.387 9.381,-0.252 0,-0.252" style="fill-rule:nonzero;"/>
        </g>
        <g transform="matrix(1,0,0,1,-332.938773,-14.114199)">
            <path d="M0,-14.175C0.646,-15.3 1.691,-16.102 2.943,-16.436C3.358,-16.547 3.774,-16.599 4.185,-16.599C6.318,-16.599 8.275,-15.171 8.848,-13.019L10.807,-3.371C11.137,-2.131 10.967,-0.834 10.328,0.278C9.682,1.403 8.637,2.205 7.385,2.538C4.812,3.227 2.163,1.689 1.48,-0.878L-0.477,-10.518L-0.479,-10.526C-0.809,-11.766 -0.639,-13.063 0,-14.175M1.237,-0.82C1.841,1.452 3.899,2.955 6.143,2.955C6.575,2.955 7.013,2.899 7.449,2.783C8.766,2.432 9.865,1.587 10.544,0.405C11.217,-0.766 11.396,-2.131 11.051,-3.429L9.092,-13.077C8.371,-15.785 5.584,-17.402 2.879,-16.68C1.562,-16.329 0.463,-15.485 -0.217,-14.302C-0.888,-13.132 -1.068,-11.769 -0.722,-10.464L1.237,-0.82Z" style="fill-rule:nonzero;"/>
        </g>
        <g transform="matrix(1,0,0,1,-351.254372,36.221897)">
            <path d="M0,24.966C-1.843,26.944 -5.475,27.904 -11.104,27.904C-15.688,27.904 -18.388,27.456 -20.135,26.405C-23.3,24.501 -23.426,21.131 -23.333,19.771L-22.575,8.928C-22.447,7.702 -21.913,6.635 -20.942,5.664L-14.349,-1.389C-13.379,-2.393 -12.235,-2.929 -11.039,-2.938L-11.007,-2.938C-9.845,-2.938 -8.671,-2.43 -7.782,-1.541L-1.341,5.285C-0.145,6.553 0.36,7.561 0.52,9.002L1.504,19.846C1.641,22.058 1.148,23.733 0,24.966M0.769,8.976C0.604,7.49 0.063,6.407 -1.16,5.11L-7.603,-1.717L-7.605,-1.719C-8.541,-2.656 -9.779,-3.191 -11.007,-3.191L-11.041,-3.191C-12.304,-3.18 -13.51,-2.618 -14.53,-1.565L-21.121,5.487C-22.132,6.499 -22.689,7.615 -22.825,8.905L-23.583,19.753C-23.679,21.16 -23.548,24.646 -20.263,26.622C-18.475,27.698 -15.736,28.157 -11.104,28.157C-5.402,28.157 -1.71,27.17 0.182,25.139C1.381,23.853 1.895,22.116 1.754,19.827L0.769,8.976Z" style="fill-rule:nonzero;"/>
        </g>
        <g transform="matrix(1,0,0,1,-348.063272,36.929397)">
            <path d="M0,-19.035C1.267,-20.232 2.275,-20.737 3.716,-20.898L14.551,-21.884C16.783,-22.021 18.467,-21.518 19.702,-20.345C21.655,-18.492 22.604,-14.868 22.604,-9.265C22.604,-4.679 22.156,-1.976 21.106,-0.228C19.204,2.939 15.834,3.062 14.476,2.973L3.642,2.215C2.417,2.086 1.351,1.552 0.379,0.579L-6.669,-6.019C-7.671,-6.989 -8.206,-8.134 -8.215,-9.33C-8.225,-10.503 -7.716,-11.69 -6.82,-12.588L0,-19.035ZM-6.995,-12.769C-7.939,-11.823 -8.476,-10.569 -8.466,-9.328C-8.456,-8.063 -7.894,-6.856 -6.841,-5.835L0.206,0.762C1.217,1.774 2.333,2.331 3.62,2.466L14.459,3.225C14.626,3.237 14.823,3.245 15.043,3.245C16.673,3.245 19.582,2.798 21.32,-0.097C22.396,-1.888 22.855,-4.629 22.855,-9.265C22.855,-14.942 21.879,-18.626 19.874,-20.529C18.585,-21.753 16.841,-22.28 14.532,-22.136L3.691,-21.149C2.206,-20.984 1.124,-20.443 -0.171,-19.22L-6.992,-12.771L-6.995,-12.769Z" style="fill-rule:nonzero;"/>
        </g>
        <g transform="matrix(1,0,0,1,-373.27737,18.658799)">
            <path d="M0,-24.967C1.843,-26.944 5.475,-27.905 11.104,-27.905C15.688,-27.905 18.388,-27.457 20.135,-26.406C23.301,-24.502 23.426,-21.132 23.334,-19.772L22.576,-8.928C22.447,-7.703 21.913,-6.636 20.942,-5.665L14.349,1.389C13.38,2.392 12.235,2.928 11.04,2.937C11.029,2.938 11.018,2.938 11.007,2.938C9.845,2.938 8.672,2.43 7.783,1.541L1.341,-5.286C0.145,-6.553 -0.36,-7.561 -0.52,-9.003L-1.504,-19.847C-1.641,-22.059 -1.148,-23.734 0,-24.967M-0.769,-8.977C-0.604,-7.491 -0.063,-6.407 1.16,-5.112L7.603,1.716L7.605,1.719C8.541,2.655 9.779,3.191 11.008,3.191C11.019,3.191 11.031,3.191 11.042,3.19C12.306,3.179 13.511,2.617 14.53,1.564L21.121,-5.488C22.133,-6.5 22.69,-7.616 22.825,-8.906L23.583,-19.754C23.679,-21.161 23.548,-24.647 20.263,-26.623C18.475,-27.699 15.736,-28.158 11.104,-28.158C5.402,-28.158 1.71,-27.171 -0.182,-25.139C-1.381,-23.853 -1.895,-22.117 -1.754,-19.828L-0.769,-8.977Z" style="fill-rule:nonzero;"/>
        </g>
        <g transform="matrix(1,0,0,1,-397.451668,36.533097)">
            <path d="M0,-18.377C1.675,-21.167 4.486,-21.598 6.062,-21.598C6.276,-21.598 6.468,-21.59 6.63,-21.579L17.464,-20.82C18.689,-20.691 19.755,-20.158 20.728,-19.185L27.774,-12.586C28.777,-11.616 29.312,-10.471 29.321,-9.276C29.331,-8.103 28.822,-6.915 27.926,-6.017L21.105,0.429C19.839,1.627 18.831,2.132 17.39,2.292L6.555,3.278C4.323,3.415 2.64,2.913 1.404,1.74C-0.549,-0.113 -1.498,-3.737 -1.498,-9.34C-1.498,-13.927 -1.05,-16.629 0,-18.377M5.858,3.553C6.091,3.553 6.329,3.545 6.574,3.53L17.416,2.543C18.9,2.378 19.983,1.837 21.277,0.614L28.098,-5.834L28.101,-5.836C29.046,-6.782 29.582,-8.037 29.572,-9.278C29.562,-10.543 29,-11.75 27.946,-12.771L20.901,-19.367C19.889,-20.379 18.774,-20.937 17.486,-21.072L6.647,-21.831C5.238,-21.93 1.758,-21.794 -0.214,-18.508C-1.29,-16.718 -1.748,-13.977 -1.748,-9.34C-1.748,-3.664 -0.773,0.02 1.232,1.924C2.384,3.017 3.901,3.553 5.858,3.553" style="fill-rule:nonzero;"/>
        </g>
        <g transform="matrix(1,0,0,1,-153.486788,59.679195)">
            <path d="M0,56.765C-15.729,56.765 -28.526,44.033 -28.526,28.383C-28.526,12.733 -15.729,-0 0,-0C15.729,-0 28.526,12.733 28.526,28.383C28.526,44.033 15.729,56.765 0,56.765M0,-0.252C-15.867,-0.252 -28.776,12.594 -28.776,28.383C-28.776,44.172 -15.867,57.017 0,57.017C15.867,57.017 28.776,44.172 28.776,28.383C28.776,12.594 15.867,-0.252 0,-0.252" style="fill-rule:nonzero;"/>
        </g>
        <g transform="matrix(1,0,0,1,-294.778276,59.649895)">
            <path d="M0,56.766C-15.729,56.766 -28.526,44.034 -28.526,28.383C-28.526,12.733 -15.729,0.001 0,0.001C15.729,0.001 28.526,12.733 28.526,28.383C28.526,44.034 15.729,56.766 0,56.766M0,-0.252C-15.867,-0.252 -28.776,12.594 -28.776,28.383C-28.776,44.173 -15.867,57.018 0,57.018C15.867,57.018 28.777,44.173 28.777,28.383C28.777,12.594 15.867,-0.252 0,-0.252" style="fill-rule:nonzero;"/>
        </g>
        <g transform="matrix(1,0,0,1,-93.841593,66.756495)">
            <path d="M0,-13.301L6.518,-6.676L-0.051,-0.001L0.96,1.011L7.479,-5.564L14.199,0.859L15.26,-0.051L8.59,-6.626L15.159,-13.2L14.148,-14.211L7.579,-7.688L1.061,-14.312L0,-13.301Z" style="fill-rule:nonzero;"/>
        </g>
        <g transform="matrix(1,0,0,1,-53.543996,19.457698)">
            <path d="M0,15.654C-4.319,15.654 -7.821,12.15 -7.821,7.827C-7.821,3.504 -4.319,0 0,0C4.319,0 7.821,3.504 7.821,7.827C7.821,12.15 4.319,15.654 0,15.654M0,-1.453C-5.121,-1.453 -9.272,2.702 -9.272,7.827C-9.272,12.952 -5.121,17.107 0,17.107C5.121,17.107 9.272,12.952 9.272,7.827C9.272,2.702 5.121,-1.453 0,-1.453" style="fill-rule:nonzero;"/>
        </g>
        <g transform="matrix(1,0,0,1,-86.287393,-2.6289)">
            <path d="M0,-10.569L6.872,1.366L-6.822,1.441L0,-10.569ZM0,-13.401L-9.323,2.832L9.373,2.731L0,-13.401Z" style="fill-rule:nonzero;"/>
        </g>
        <g transform="matrix(1,0,0,1,-588.315553,-900.829728)">
            <path d="M475.729,934.504L463.185,934.504L463.185,921.949L475.729,921.949L475.729,934.504ZM461.731,935.978L477.193,935.978L477.193,920.503L461.731,920.503L461.731,935.978Z" style="fill-rule:nonzero;"/>
        </g>
        <g transform="matrix(0,-1,-1,0,-240.327581,53.204296)">
            <path d="M-2.426,-2.425C-3.766,-2.425 -4.853,-1.339 -4.853,0.001C-4.853,1.34 -3.766,2.426 -2.426,2.426C-1.085,2.426 0.002,1.34 0.002,0.001C0.002,-1.339 -1.085,-2.425 -2.426,-2.425" style="fill-rule:nonzero;"/>
        </g>
        <g transform="matrix(0,-1,-1,0,-232.343981,53.204296)">
            <path d="M-2.426,-2.425C-3.766,-2.425 -4.853,-1.339 -4.853,0.001C-4.853,1.34 -3.766,2.426 -2.426,2.426C-1.085,2.426 0.002,1.34 0.002,0.001C0.002,-1.339 -1.085,-2.425 -2.426,-2.425" style="fill-rule:nonzero;"/>
        </g>
        <g transform="matrix(0,-1,-1,0,-224.208682,53.204296)">
            <path d="M-2.426,-2.425C-3.766,-2.425 -4.853,-1.339 -4.853,0C-4.853,1.34 -3.766,2.426 -2.426,2.426C-1.085,2.426 0.002,1.34 0.002,0C0.002,-1.339 -1.085,-2.425 -2.426,-2.425" style="fill-rule:nonzero;"/>
        </g>
        <g transform="matrix(0,-1,-1,0,-216.275383,53.204296)">
            <path d="M-2.426,-2.425C-3.766,-2.425 -4.853,-1.339 -4.853,0.001C-4.853,1.34 -3.766,2.426 -2.426,2.426C-1.085,2.426 0.002,1.34 0.002,0.001C0.002,-1.339 -1.085,-2.425 -2.426,-2.425" style="fill-rule:nonzero;"/>
        </g>
        <g transform="matrix(0,-1,-1,0,-208.292183,53.153996)">
            <path d="M-2.425,-2.425C-3.766,-2.425 -4.853,-1.339 -4.853,-0.001C-4.853,1.34 -3.766,2.425 -2.425,2.425C-1.085,2.425 0.002,1.34 0.002,-0.001C0.002,-1.339 -1.085,-2.425 -2.425,-2.425" style="fill-rule:nonzero;"/>
        </g>
        <g transform="matrix(0,-1,-1,0,-212.233083,60.132495)">
            <path d="M-2.426,-2.425C-3.766,-2.425 -4.853,-1.339 -4.853,0C-4.853,1.34 -3.766,2.426 -2.426,2.426C-1.085,2.426 0.002,1.34 0.002,0C0.002,-1.339 -1.085,-2.425 -2.426,-2.425" style="fill-rule:nonzero;"/>
        </g>
        <g transform="matrix(0,-1,-1,0,-220.267282,60.132495)">
            <path d="M-2.426,-2.425C-3.766,-2.425 -4.853,-1.339 -4.853,0.001C-4.853,1.34 -3.766,2.426 -2.426,2.426C-1.085,2.426 0.002,1.34 0.002,0.001C0.002,-1.339 -1.085,-2.425 -2.426,-2.425" style="fill-rule:nonzero;"/>
        </g>
        <g transform="matrix(0,-1,-1,0,-228.251882,60.082695)">
            <path d="M-2.425,-2.426C-3.766,-2.426 -4.853,-1.34 -4.853,0C-4.853,1.339 -3.766,2.425 -2.425,2.425C-1.085,2.425 0.002,1.339 0.002,0C0.002,-1.34 -1.085,-2.426 -2.425,-2.426" style="fill-rule:nonzero;"/>
        </g>
        <g transform="matrix(0,-1,-1,0,-236.387381,60.082695)">
            <path d="M-2.425,-2.426C-3.766,-2.426 -4.853,-1.34 -4.853,-0.001C-4.853,1.339 -3.766,2.425 -2.425,2.425C-1.085,2.425 0.002,1.339 0.002,-0.001C0.002,-1.34 -1.085,-2.426 -2.425,-2.426" style="fill-rule:nonzero;"/>
        </g>
        <g transform="matrix(1,0,0,1,-226.988282,131.133789)">
            <path d="M0,-0.506C0.354,-0.202 0.708,0 1.415,0L3.992,0C4.497,0 5.255,-0.101 5.457,-0.506" style="fill-rule:nonzero;"/>
        </g>
        <g transform="matrix(1,0,0,1,-359.165571,56.393295)">
            <path d="M0,-2.118L-2.889,0.666C-3.072,0.841 -3.36,0.839 -3.54,0.661L-6.393,-2.158C-6.691,-2.452 -6.481,-2.959 -6.063,-2.956L-0.32,-2.92C0.098,-2.918 0.301,-2.408 0,-2.118" style="fill-rule:nonzero;"/>
        </g>
        <g transform="matrix(1,0,0,1,-335.702673,30.863597)">
            <path d="M0,-6.395L2.781,-3.503C2.956,-3.321 2.954,-3.032 2.777,-2.852L-0.04,0.004C-0.334,0.301 -0.841,0.091 -0.838,-0.327L-0.802,-6.074C-0.799,-6.493 -0.29,-6.696 0,-6.395" style="fill-rule:nonzero;"/>
        </g>
        <g transform="matrix(1,0,0,1,-365.365971,-1.5097)">
            <path d="M0,2.117L2.889,-0.666C3.072,-0.841 3.36,-0.84 3.54,-0.662L6.393,2.158C6.691,2.451 6.481,2.958 6.063,2.956L0.32,2.92C-0.098,2.917 -0.301,2.408 0,2.117" style="fill-rule:nonzero;"/>
        </g>
        <g transform="matrix(1,0,0,1,-389.145769,24.384198)">
            <path d="M0,6.396L-2.781,3.504C-2.956,3.322 -2.955,3.033 -2.777,2.853L0.04,-0.003C0.334,-0.301 0.841,-0.091 0.838,0.328L0.802,6.075C0.799,6.494 0.29,6.697 0,6.396" style="fill-rule:nonzero;"/>
        </g>
        <g transform="matrix(-1,0,0,1,-71.113594,-1030.110718)">
            <rect x="258.183" y="990.748" width="0.836" height="4.266"/>
        </g>
        <g transform="matrix(-0.865594,0.500747,0.500747,0.865594,-334.302074,-36.515348)">
            <rect x="-1.587" y="-0.426" width="0.813" height="3.309"/>
        </g>
        <g transform="matrix(0.865594,0.500747,0.500747,-0.865594,-328.401575,-35.570846)">
            <rect x="0.774" y="-0.426" width="0.813" height="3.309"/>
        </g>
        <g transform="matrix(-1,0,0,1,350.212372,-1034.591717)">
            <rect x="466.14" y="994.755" width="6.248" height="0.733"/>
        </g>
        <g transform="matrix(-1,0,0,1,350.212372,-1029.953718)">
            <rect x="466.14" y="992.436" width="6.248" height="0.733"/>
        </g>
        <g transform="matrix(-1,0,0,1,350.212372,-1025.315718)">
            <rect x="466.14" y="990.117" width="6.248" height="0.733"/>
        </g>
        <g transform="matrix(1,0,0,1,-96.823292,241.232081)">
            <path d="M0,-299.906C-7.337,-299.906 -13.05,-298.745 -16.119,-298.121C-17.199,-297.828 -17.645,-297.297 -17.756,-296.216L-18.824,-288.685C-19.613,-288.602 -21.776,-288.356 -22.952,-288.051C-27.804,-289.69 -42.002,-291.121 -46.692,-291.593L-47.45,-291.67C-49.987,-292.434 -55.713,-292.883 -59.508,-293.181L-60.606,-293.267C-79.749,-294.913 -107.648,-295.775 -125.313,-295.775L-126.882,-295.772C-141.453,-295.772 -172.606,-295.092 -194.167,-293.267L-195.264,-293.181C-199.059,-292.883 -204.784,-292.434 -207.322,-291.67L-208.08,-291.593C-212.769,-291.121 -226.968,-289.69 -231.82,-288.051C-232.995,-288.356 -235.156,-288.601 -235.946,-288.685L-237.023,-296.54C-237.21,-297.387 -237.696,-297.862 -238.605,-298.111C-241.722,-298.745 -247.435,-299.906 -254.772,-299.906C-259.678,-299.906 -264.55,-299.38 -269.253,-298.343C-282.936,-294.884 -295.322,-288.78 -295.771,-285.277L-296.718,-278.133C-296.945,-278.107 -297.22,-278.082 -297.529,-278.053C-299.777,-277.846 -303.54,-277.499 -304.379,-275.678C-304.559,-275.289 -304.745,-274.876 -304.941,-274.438C-305.733,-272.676 -306.718,-270.482 -308.23,-267.818C-314.757,-255.121 -322.73,-234.149 -326.902,-222.777C-330.699,-212.428 -338.822,-185.433 -344.197,-161.665C-349.61,-137.732 -352.229,-113.222 -352.922,-102.512C-354.271,-81.691 -352.908,-68.086 -352.093,-59.957L-351.936,-58.377C-350.432,-43.019 -347.636,-31.636 -343.627,-24.546C-337.795,-14.233 -326.519,-5.186 -319.495,-5.186C-318.712,-5.186 -317.991,-5.301 -317.349,-5.529L-294.561,-0.967C-293.787,-0.281 -293.215,0 -292.605,0C-292.275,0 -291.93,-0.087 -291.55,-0.268C-289.63,-1.428 -287.298,-3.647 -283.037,-12.07C-280.481,-17.124 -276.319,-26.684 -270.667,-40.485L-270.342,-41.277C-269.935,-42.266 -268.106,-46.974 -265.989,-52.425C-262.504,-61.394 -258.168,-72.557 -257.359,-74.393C-256.995,-75.221 -256.586,-76.241 -256.153,-77.323C-255.006,-80.182 -253.579,-83.742 -251.875,-86.536C-249.355,-90.668 -244.499,-96.832 -241.047,-99.586C-234.219,-105.035 -226.597,-107.798 -218.395,-107.797C-217.502,-107.797 -216.591,-107.764 -215.689,-107.698C-214.241,-107.578 -212.354,-107.227 -210.356,-106.854C-207.238,-106.273 -203.703,-105.614 -200.361,-105.522C-199.543,-105.5 -198.553,-105.489 -197.42,-105.489C-193.729,-105.489 -188.988,-105.608 -185.179,-105.704C-182.938,-105.761 -181.003,-105.81 -179.68,-105.825C-178.845,-105.835 -176.511,-105.84 -172.542,-105.84C-167.648,-105.84 -160.925,-105.833 -154.14,-105.826C-147.23,-105.818 -140.255,-105.811 -135.083,-105.811C-130.955,-105.811 -128.436,-105.816 -127.382,-105.825C-126.336,-105.816 -123.817,-105.811 -119.688,-105.811C-114.515,-105.811 -107.54,-105.818 -100.629,-105.826C-93.845,-105.833 -87.123,-105.84 -82.229,-105.84C-78.26,-105.84 -75.926,-105.835 -75.092,-105.825C-73.768,-105.81 -71.833,-105.761 -69.592,-105.704C-65.783,-105.608 -61.043,-105.489 -57.352,-105.489C-56.218,-105.489 -55.228,-105.5 -54.41,-105.522C-51.068,-105.614 -47.534,-106.273 -44.416,-106.854C-42.418,-107.227 -40.531,-107.578 -39.079,-107.698C-38.179,-107.764 -37.269,-107.797 -36.377,-107.797C-28.174,-107.797 -20.552,-105.034 -13.724,-99.586C-10.272,-96.832 -5.416,-90.668 -2.896,-86.536C-1.193,-83.742 0.234,-80.182 1.381,-77.323C1.814,-76.241 2.223,-75.221 2.588,-74.393C3.396,-72.557 7.734,-61.391 11.219,-52.42C13.336,-46.971 15.164,-42.266 15.571,-41.277L15.895,-40.485C21.548,-26.684 25.71,-17.124 28.266,-12.07C32.526,-3.647 34.858,-1.428 36.744,-0.286C37.159,-0.087 37.504,0 37.833,0C38.444,0 39.015,-0.281 39.789,-0.967L62.577,-5.529C63.219,-5.301 63.941,-5.186 64.724,-5.186C71.748,-5.186 83.024,-14.233 88.855,-24.546C92.864,-31.636 95.66,-43.019 97.164,-58.377L97.322,-59.957C98.136,-68.086 99.5,-81.691 98.151,-102.512C97.457,-113.222 94.838,-137.733 89.426,-161.665C84.05,-185.433 75.927,-212.428 72.13,-222.777C67.958,-234.149 59.985,-255.121 53.466,-267.803C51.946,-270.482 50.961,-272.676 50.169,-274.438C49.973,-274.876 49.787,-275.289 49.608,-275.678C48.768,-277.499 45.006,-277.846 42.758,-278.053C42.449,-278.082 42.173,-278.107 41.946,-278.133L40.999,-285.279C40.55,-288.78 28.164,-294.884 14.493,-298.34C9.778,-299.38 4.906,-299.906 0,-299.906M0,-299.527C4.308,-299.527 9.177,-299.125 14.401,-297.972C29.106,-294.255 40.248,-288.187 40.626,-285.228L41.612,-277.794C43.128,-277.567 48.358,-277.491 49.267,-275.518C50.177,-273.546 51.238,-270.967 53.133,-267.629C59.878,-254.506 68.216,-232.356 71.778,-222.646C75.426,-212.702 83.654,-185.483 89.06,-161.58C94.138,-139.127 96.964,-115.016 97.776,-102.488C99.216,-80.261 97.549,-66.152 96.79,-58.414C96.033,-50.677 94.062,-34.519 88.529,-24.734C82.678,-14.386 71.456,-5.565 64.724,-5.565C63.955,-5.565 63.244,-5.68 62.607,-5.921L39.616,-1.319C38.913,-0.682 38.387,-0.379 37.833,-0.379C37.551,-0.379 37.262,-0.457 36.938,-0.611C35.018,-1.774 32.744,-4.05 28.6,-12.242C24.457,-20.435 16.979,-38.843 15.917,-41.422C14.856,-44.001 4.245,-71.563 2.931,-74.547C1.617,-77.531 -0.202,-82.841 -2.577,-86.735C-4.952,-90.628 -9.88,-97.002 -13.491,-99.883C-16.965,-102.655 -24.756,-108.176 -36.377,-108.176C-37.266,-108.176 -38.177,-108.144 -39.11,-108.075C-42.799,-107.772 -48.913,-106.053 -54.42,-105.901C-55.282,-105.877 -56.274,-105.867 -57.352,-105.867C-63.166,-105.867 -71.464,-106.162 -75.087,-106.204C-75.995,-106.215 -78.614,-106.219 -82.229,-106.219C-92.108,-106.219 -109.437,-106.19 -119.688,-106.19C-123.441,-106.19 -126.243,-106.194 -127.386,-106.204C-128.528,-106.194 -131.332,-106.19 -135.083,-106.19C-145.333,-106.19 -162.662,-106.219 -172.542,-106.219C-176.16,-106.219 -178.777,-106.215 -179.684,-106.204C-183.308,-106.162 -191.606,-105.867 -197.42,-105.867C-198.498,-105.867 -199.49,-105.877 -200.351,-105.901C-205.859,-106.053 -211.973,-107.772 -215.662,-108.075C-216.594,-108.144 -217.506,-108.176 -218.395,-108.176C-230.017,-108.177 -237.807,-102.655 -241.281,-99.883C-244.892,-97.002 -249.82,-90.628 -252.195,-86.735C-254.57,-82.841 -256.389,-77.531 -257.703,-74.547C-259.017,-71.563 -269.628,-44.001 -270.689,-41.422C-271.75,-38.843 -279.229,-20.435 -283.372,-12.242C-287.515,-4.05 -289.789,-1.774 -291.709,-0.611C-292.033,-0.457 -292.323,-0.379 -292.605,-0.379C-293.159,-0.379 -293.684,-0.682 -294.387,-1.319L-317.379,-5.921C-318.016,-5.68 -318.727,-5.565 -319.495,-5.565C-326.228,-5.565 -337.449,-14.385 -343.301,-24.734C-348.834,-34.519 -350.804,-50.677 -351.562,-58.414C-352.32,-66.152 -353.988,-80.261 -352.548,-102.488C-351.736,-115.016 -348.909,-139.127 -343.831,-161.58C-338.425,-185.483 -330.198,-212.702 -326.55,-222.646C-322.988,-232.356 -314.65,-254.506 -307.904,-267.629C-306.01,-270.967 -304.948,-273.546 -304.039,-275.518C-303.129,-277.491 -297.899,-277.567 -296.384,-277.794L-295.398,-285.228C-295.019,-288.187 -283.877,-294.255 -269.173,-297.972C-263.95,-299.124 -259.079,-299.527 -254.772,-299.527C-247.452,-299.527 -241.757,-298.365 -238.703,-297.745C-237.87,-297.517 -237.534,-297.113 -237.395,-296.488L-236.278,-288.338C-236.278,-288.338 -233.17,-288.035 -231.806,-287.656C-226.804,-289.4 -210.962,-290.917 -207.249,-291.297C-204.52,-292.131 -197.926,-292.586 -194.136,-292.89C-173.52,-294.635 -143.252,-295.393 -126.881,-295.393C-126.371,-295.395 -125.846,-295.396 -125.313,-295.396C-108.608,-295.396 -80.57,-294.604 -60.636,-292.89C-56.846,-292.586 -50.252,-292.131 -47.523,-291.297C-43.809,-290.917 -27.968,-289.4 -22.966,-287.656C-21.601,-288.035 -18.494,-288.338 -18.494,-288.338L-17.382,-296.177C-17.281,-297.163 -16.902,-297.517 -16.068,-297.745C-13.015,-298.365 -7.318,-299.527 0,-299.527" style="fill-rule:nonzero;"/>
        </g>
    </g>
</svg>
