<?xml version="1.0" encoding="UTF-8" standalone="no"?>
<!DOCTYPE svg PUBLIC "-//W3C//DTD SVG 1.1//EN" "http://www.w3.org/Graphics/SVG/1.1/DTD/svg11.dtd">
<svg width="100%" height="100%" viewBox="0 0 1384 714" version="1.1" xmlns="http://www.w3.org/2000/svg" xmlns:xlink="http://www.w3.org/1999/xlink" xml:space="preserve" xmlns:serif="http://www.serif.com/" style="fill-rule:evenodd;clip-rule:evenodd;stroke-miterlimit:10;">
    <defs><style>path,rect,text{fill:#000}@media (prefers-color-scheme: dark) {
  svg > * {
    filter: invert(1);
  }
}</style></defs>
    <g id="scaleall" transform="matrix(1.15,0,0,1.15,-198.45,18.9)">
    <g id="SteamDeck">
        <g transform="matrix(1,0,0,1,180,140)">
            <path d="M34.835,20.896C34.835,20.896 41.542,9.54 66.258,6.068C83.512,3.646 158.188,4.988 158.188,4.988C158.188,4.988 166.899,6.238 166.899,10.62M987.403,20.896C987.403,20.896 980.696,9.54 955.98,6.068C938.726,3.646 864.05,4.988 864.05,4.988C864.05,4.988 855.339,6.238 855.339,10.62M3.35,149.594L49.121,149.594C58.986,149.594 66.984,157.592 66.984,167.457L66.984,236.361C66.984,251.093 71.537,265.465 80.022,277.508L159.609,390.485C162.537,394.643 164.109,399.604 164.109,404.689M1020.38,149.594L974.606,149.594C964.741,149.594 956.743,157.592 956.743,167.457L956.743,236.361C956.743,251.093 952.19,265.465 943.705,277.508L864.118,390.485C861.19,394.643 859.618,399.604 859.618,404.689M192.587,256.887L112.642,256.887C105.025,256.887 98.857,250.715 98.857,243.093L98.857,163.108C98.857,155.485 105.025,149.314 112.642,149.314L192.571,149.314C200.188,149.314 206.356,155.485 206.356,163.108L206.356,243.093C206.371,250.715 200.188,256.887 192.587,256.887ZM195.562,299.61L163.415,299.61C157.448,299.61 152.606,294.766 152.606,288.795C152.606,282.823 157.448,277.979 163.415,277.979L195.562,277.979C201.529,277.979 206.371,282.823 206.371,288.795C206.371,294.766 201.529,299.61 195.562,299.61ZM129.975,40.123L113.665,40.123C109.98,40.123 107.005,37.13 107.005,33.458C107.005,29.77 109.996,26.792 113.665,26.792L129.975,26.792C133.66,26.792 136.636,29.785 136.636,33.458C136.652,37.13 133.66,40.123 129.975,40.123ZM197.836,90.009C197.836,108.893 182.539,124.201 163.669,124.201C144.799,124.201 129.501,108.893 129.501,90.009C129.501,71.126 144.799,55.818 163.669,55.818C182.539,55.818 197.836,71.126 197.836,90.009ZM186.822,90.635C186.822,103.698 176.24,114.288 163.185,114.288C150.131,114.288 139.549,103.698 139.549,90.635C139.549,77.572 150.131,66.982 163.185,66.982C176.24,66.982 186.822,77.572 186.822,90.635ZM206.711,345.281L198.879,345.281C197.691,345.281 196.72,344.309 196.72,343.121C196.72,341.933 197.691,340.961 198.879,340.961L206.711,340.961C207.898,340.961 208.87,341.933 208.87,343.121C208.885,344.325 207.914,345.281 206.711,345.281ZM191.8,345.281L183.968,345.281C182.78,345.281 181.809,344.309 181.809,343.121C181.809,341.933 182.78,340.961 183.968,340.961L191.8,340.961C192.987,340.961 193.959,341.933 193.959,343.121C193.959,344.325 193.003,345.281 191.8,345.281ZM176.891,345.281L169.059,345.281C167.872,345.281 166.9,344.309 166.9,343.121C166.9,341.933 167.872,340.961 169.059,340.961L176.891,340.961C178.079,340.961 179.05,341.933 179.05,343.121C179.05,344.325 178.079,345.281 176.891,345.281ZM206.71,324.004L198.877,324.004C197.69,324.004 196.719,323.032 196.719,321.844C196.719,320.656 197.69,319.684 198.877,319.684L206.71,319.684C207.897,319.684 208.869,320.656 208.869,321.844C208.884,323.032 207.913,324.004 206.71,324.004ZM191.847,324.004L184.014,324.004C182.827,324.004 181.856,323.032 181.856,321.844C181.856,320.656 182.827,319.684 184.014,319.684L191.847,319.684C193.034,319.684 194.006,320.656 194.006,321.844C194.006,323.032 193.034,324.004 191.847,324.004ZM176.968,324.004L169.135,324.004C167.948,324.004 166.977,323.032 166.977,321.844C166.977,320.656 167.948,319.684 169.135,319.684L176.968,319.684C178.155,319.684 179.126,320.656 179.126,321.844C179.126,323.032 178.17,324.004 176.968,324.004ZM162.105,324.004L154.272,324.004C153.085,324.004 152.114,323.032 152.114,321.844C152.114,320.656 153.085,319.684 154.272,319.684L162.105,319.684C163.292,319.684 164.263,320.656 164.263,321.844C164.263,323.032 163.292,324.004 162.105,324.004ZM206.711,334.635L191.554,334.635C190.367,334.635 189.396,333.663 189.396,332.475C189.396,331.287 190.367,330.315 191.554,330.315L206.711,330.315C207.898,330.315 208.869,331.287 208.869,332.475C208.885,333.678 207.913,334.635 206.711,334.635ZM184.616,334.635L176.783,334.635C175.596,334.635 174.624,333.663 174.624,332.475C174.624,331.287 175.596,330.315 176.783,330.315L184.616,330.315C185.803,330.315 186.774,331.287 186.774,332.475C186.774,333.678 185.803,334.635 184.616,334.635ZM169.397,334.635L161.565,334.635C160.377,334.635 159.406,333.663 159.406,332.475C159.406,331.287 160.377,330.315 161.565,330.315L169.397,330.315C170.584,330.315 171.556,331.287 171.556,332.475C171.556,333.678 170.584,334.635 169.397,334.635ZM831.856,256.887L911.786,256.887C919.403,256.887 925.57,250.715 925.57,243.093L925.57,163.108C925.57,155.485 919.403,149.314 911.786,149.314L831.856,149.314C824.239,149.314 818.072,155.485 818.072,163.108L818.072,243.093C818.072,250.715 824.239,256.887 831.856,256.887ZM828.88,299.61L861.028,299.61C866.995,299.61 871.836,294.766 871.836,288.795C871.836,282.823 866.995,277.979 861.028,277.979L828.88,277.979C822.913,277.979 818.072,282.823 818.072,288.795C818.072,294.766 822.913,299.61 828.88,299.61ZM894.451,40.123L910.761,40.123C914.446,40.123 917.422,37.13 917.422,33.458C917.422,29.77 914.431,26.792 910.761,26.792L894.451,26.792C890.766,26.792 887.79,29.785 887.79,33.458C887.79,37.13 890.766,40.123 894.451,40.123ZM893.943,90.559C893.943,109.442 878.646,124.75 859.776,124.75C840.906,124.75 825.608,109.442 825.608,90.559C825.608,71.676 840.906,56.368 859.776,56.368C878.646,56.368 893.943,71.676 893.943,90.559ZM883.615,90.559C883.615,103.622 873.032,114.212 859.978,114.212C846.924,114.212 836.342,103.622 836.342,90.559C836.342,77.496 846.924,66.906 859.978,66.906C873.032,66.906 883.615,77.496 883.615,90.559ZM817.717,345.281L825.55,345.281C826.737,345.281 827.709,344.309 827.709,343.121C827.709,341.933 826.737,340.961 825.55,340.961L817.717,340.961C816.53,340.961 815.559,341.933 815.559,343.121C815.559,344.325 816.515,345.281 817.717,345.281ZM832.626,345.281L840.459,345.281C841.646,345.281 842.617,344.309 842.617,343.121C842.617,341.933 841.646,340.961 840.459,340.961L832.626,340.961C831.439,340.961 830.467,341.933 830.467,343.121C830.467,344.325 831.439,345.281 832.626,345.281ZM847.551,345.281L855.384,345.281C856.571,345.281 857.543,344.309 857.543,343.121C857.543,341.933 856.571,340.961 855.384,340.961L847.551,340.961C846.364,340.961 845.393,341.933 845.393,343.121C845.377,344.325 846.349,345.281 847.551,345.281ZM817.717,324.004L825.55,324.004C826.737,324.004 827.709,323.032 827.709,321.844C827.709,320.656 826.737,319.684 825.55,319.684L817.717,319.684C816.53,319.684 815.559,320.656 815.559,321.844C815.559,323.032 816.515,324.004 817.717,324.004ZM832.58,324.004L840.413,324.004C841.6,324.004 842.572,323.032 842.572,321.844C842.572,320.656 841.6,319.684 840.413,319.684L832.58,319.684C831.393,319.684 830.422,320.656 830.422,321.844C830.422,323.032 831.393,324.004 832.58,324.004ZM847.46,324.004L855.292,324.004C856.48,324.004 857.451,323.032 857.451,321.844C857.451,320.656 856.48,319.684 855.292,319.684L847.46,319.684C846.272,319.684 845.301,320.656 845.301,321.844C845.301,323.032 846.272,324.004 847.46,324.004ZM862.338,324.004L870.17,324.004C871.358,324.004 872.329,323.032 872.329,321.844C872.329,320.656 871.358,319.684 870.17,319.684L862.338,319.684C861.151,319.684 860.179,320.656 860.179,321.844C860.179,323.032 861.135,324.004 862.338,324.004ZM817.717,334.635L832.874,334.635C834.061,334.635 835.032,333.663 835.032,332.475C835.032,331.287 834.061,330.315 832.874,330.315L817.717,330.315C816.53,330.315 815.559,331.287 815.559,332.475C815.559,333.678 816.515,334.635 817.717,334.635ZM839.827,334.635L847.66,334.635C848.847,334.635 849.818,333.663 849.818,332.475C849.818,331.287 848.847,330.315 847.66,330.315L839.827,330.315C838.64,330.315 837.669,331.287 837.669,332.475C837.653,333.678 838.624,334.635 839.827,334.635ZM855.045,334.635L862.878,334.635C864.065,334.635 865.037,333.663 865.037,332.475C865.037,331.287 864.065,330.315 862.878,330.315L855.045,330.315C853.858,330.315 852.887,331.287 852.887,332.475C852.887,333.678 853.843,334.635 855.045,334.635ZM974.606,44.096C974.606,52.42 967.858,59.167 959.534,59.167C951.211,59.167 944.463,52.42 944.463,44.096C944.463,35.772 951.211,29.025 959.534,29.025C967.858,29.025 974.606,35.772 974.606,44.096ZM974.606,103.871C974.606,112.195 967.858,118.942 959.534,118.942C951.211,118.942 944.463,112.195 944.463,103.871C944.463,95.548 951.211,88.8 959.534,88.8C967.858,88.8 974.606,95.548 974.606,103.871ZM1004.19,74.238C1004.19,82.562 997.438,89.31 989.114,89.31C980.791,89.31 974.043,82.562 974.043,74.238C974.043,65.915 980.791,59.167 989.114,59.167C997.438,59.167 1004.19,65.915 1004.19,74.238ZM944.463,74.238C944.463,82.562 937.716,89.31 929.392,89.31C921.068,89.31 914.321,82.562 914.321,74.238C914.321,65.915 921.068,59.167 929.392,59.167C937.716,59.167 944.463,65.915 944.463,74.238ZM801.936,389.956L221.335,389.956C219.315,389.956 217.696,388.32 217.696,386.314L217.696,31.038C217.696,29.017 219.33,27.397 221.335,27.397L801.921,27.397C803.94,27.397 805.559,29.033 805.559,31.038L805.559,386.314C805.575,388.32 803.94,389.956 801.936,389.956ZM242.5,37L783.098,37L783.098,376.873L242.5,376.873L242.5,37ZM30.76,84.131C28.894,77.289 28.894,70.072 30.76,63.229C31.055,62.149 32.036,61.4 33.155,61.4L50.238,61.4C52.704,61.4 54.703,59.401 54.703,56.934L54.703,39.852C54.703,38.733 55.453,37.752 56.533,37.457C63.375,35.591 70.592,35.591 77.435,37.457C78.515,37.752 79.264,38.733 79.264,39.852L79.264,56.934C79.264,59.401 81.263,61.4 83.729,61.4L100.812,61.4C101.931,61.4 102.912,62.149 103.207,63.229C105.073,70.072 105.073,77.289 103.207,84.131C102.912,85.211 101.931,85.96 100.812,85.96L83.729,85.96C81.263,85.96 79.264,87.96 79.264,90.426L79.264,107.508C79.264,108.628 78.515,109.609 77.435,109.903C70.592,111.77 63.375,111.77 56.533,109.903C55.453,109.609 54.703,108.628 54.703,107.508L54.703,90.426C54.703,87.96 52.704,85.96 50.238,85.96L33.155,85.96C32.036,85.96 31.055,85.211 30.76,84.131Z" style="fill:none;fill-rule:nonzero;stroke:#000;stroke-width:1.16px;"/>
        </g>
        <g transform="matrix(1,0,0,1,180,140)">
            <path d="M4.688,138.986C4.078,84.857 3.773,57.792 17.395,38.774C21.792,32.635 27.135,27.231 33.224,22.765C52.088,8.93 79.154,8.93 133.288,8.93L891.302,8.93C945.435,8.93 972.502,8.93 991.365,22.765C997.454,27.231 1002.8,32.635 1007.19,38.774C1020.82,57.792 1020.51,84.857 1019.9,138.986L1018.87,230.404C1018.05,303.325 1017.64,339.786 998.847,365.286C992.776,373.525 985.454,380.765 977.146,386.744C951.436,405.247 914.973,405.247 842.047,405.247L182.542,405.247C109.616,405.247 73.153,405.247 47.443,386.744C39.136,380.765 31.814,373.525 25.742,365.286C6.951,339.786 6.54,303.325 5.718,230.404L4.688,138.986Z" style="fill:none;fill-rule:nonzero;stroke:#000;stroke-width:3.47px;stroke-miterlimit:4;"/>
        </g>
        <g transform="matrix(1,0,0,1,180,140)">
            <path d="M1020.38,99.357L1016.93,80.505C1010.52,45.512 980.024,20.094 944.449,20.094L79.278,20.094C43.703,20.094 13.209,45.512 6.801,80.505L3.35,99.357M210.552,90.762C210.552,116.843 189.409,137.985 163.328,137.985C137.247,137.985 116.105,116.843 116.105,90.762C116.105,64.681 137.247,43.538 163.328,43.538C189.409,43.538 210.552,64.681 210.552,90.762ZM907.177,90.479C907.177,116.56 886.034,137.702 859.953,137.702C833.872,137.702 812.73,116.56 812.73,90.479C812.73,64.398 833.872,43.255 859.953,43.255C886.034,43.255 907.177,64.398 907.177,90.479Z" style="fill:none;fill-rule:nonzero;stroke:#000;stroke-opacity:0.3;stroke-width:1.16px;"/>
        </g>
        <g transform="matrix(1,0,0,1,181,141)">
            <path d="M310.358,29.026C311.591,29.026 312.591,28.026 312.591,26.793C312.591,25.56 311.591,24.561 310.358,24.561C309.125,24.561 308.125,25.56 308.125,26.793C308.125,28.026 309.125,29.026 310.358,29.026ZM716.721,29.026C717.954,29.026 718.954,28.026 718.954,26.793C718.954,25.56 717.954,24.561 716.721,24.561C715.488,24.561 714.488,25.56 714.488,26.793C714.488,28.026 715.488,29.026 716.721,29.026Z"/>
        </g>
    </g>
    <g id="labels" transform="matrix(1,0,0,1,180,140)">
        <path d="M80,7L150,-82" style="fill:none;fill-rule:nonzero;stroke:#000;stroke-width:1px;"/>
        <path d="M150,5L200,-30" style="fill:none;fill-rule:nonzero;stroke:#000;stroke-width:1px;"/>
        <path d="M245,46L130,34" style="fill:none;fill-rule:nonzero;stroke:#000;stroke-width:1px;"/>
        <path d="M245,99L210,99" style="fill:none;fill-rule:nonzero;stroke:#000;stroke-width:1px;"/>
        <path d="M67,110L90,143L248,143" style="fill:none;fill-rule:nonzero;stroke:#000;stroke-width:1px;"/>
        <path d="M944,7L874,-82" style="fill:none;fill-rule:nonzero;stroke:#000;stroke-width:1px;"/>
        <path d="M874,5L824,-30" style="fill:none;fill-rule:nonzero;stroke:#000;stroke-width:1px;"/>
        <path d="M1031,44L974,44" style="fill:none;fill-rule:nonzero;stroke:#000;stroke-width:1px;"/>
        <path d="M1031,74L1004,74" style="fill:none;fill-rule:nonzero;stroke:#000;stroke-width:1px;"/>
        <path d="M1031,104L974,104" style="fill:none;fill-rule:nonzero;stroke:#000;stroke-width:1px;"/>
        <path d="M929,89L929,140L1031,140" style="fill:none;fill-rule:nonzero;stroke:#000;stroke-width:1px;"/>
        <path d="M776,90L813,90" style="fill:none;fill-rule:nonzero;stroke:#000;stroke-width:1px;"/>
    </g>
    <g id="face-letters" transform="matrix(1,0,0,1,180,140)">
        <g transform="matrix(1,0,0,1,959,49)">
            <text x="-4.669px" y="0px" style="font-family:'Helvetica';font-size:14px;">Y</text>
        </g>
        <g transform="matrix(1,0,0,1,989,79)">
            <text x="-4.669px" y="0px" style="font-family:'Helvetica';font-size:14px;">B</text>
        </g>
        <g transform="matrix(1,0,0,1,959,109)">
            <text x="-4.669px" y="0px" style="font-family:'Helvetica';font-size:14px;">A</text>
        </g>
        <g transform="matrix(1,0,0,1,929,79)">
            <text x="-4.669px" y="0px" style="font-family:'Helvetica';font-size:14px;">X</text>
        </g>
    </g>
    <g id="label-text" transform="matrix(1,0,0,1,180,140)">
        <g transform="matrix(1,0,0,1,150,-85)">
            <g>
                <text x="0px" y="0px" style="font-family:'Helvetica';font-size:16px;">L</text>
                <g transform="matrix(1,0,0,1,7.719,0)">
                    <text x="0px" y="0px" style="font-family:'Helvetica';font-size:16px;">T:<tspan x="14.218px " y="0px "> </tspan>Block</text>
                </g>
            </g>
        </g>
        <g transform="matrix(1,0,0,1,200,-40)">
            <text x="0px" y="0px" style="font-family:'Helvetica';font-size:16px;">LB+LS: Lean</text>
        </g>
        <g transform="matrix(1,0,0,1,200,-22)">
            <text x="0px" y="0px" style="font-family:'Helvetica';font-size:16px;">LB+DPad: Zoom</text>
        </g>
        <g transform="matrix(1,0,0,1,250,156)">
            <text x="0px" y="0px" style="font-family:'Helvetica';font-size:16px;">Up: Cycle Weapons (next)</text>
        </g>
        <g transform="matrix(1,0,0,1,250,174)">
            <text x="0px" y="0px" style="font-family:'Helvetica';font-size:16px;">Down: Cycle Weapons (prev)</text>
        </g>
        <g transform="matrix(1,0,0,1,250,192)">
            <text x="0px" y="0px" style="font-family:'Helvetica';font-size:16px;">Left: Cycle Items (prev)</text>
        </g>
        <g transform="matrix(1,0,0,1,250,210)">
            <text x="0px" y="0px" style="font-family:'Helvetica';font-size:16px;">Right: Cycle Items (next)</text>
        </g>
        <g transform="matrix(1,0,0,1,250,98)">
            <text x="0px" y="0px" style="font-family:'Helvetica';font-size:16px;">LS+Y: Quicksave</text>
        </g>
        <g transform="matrix(1,0,0,1,250,116)">
            <text x="0px" y="0px" style="font-family:'Helvetica';font-size:16px;">LS+B: Quickload</text>
        </g>
        <g transform="matrix(1,0,0,1,250,83)">
            <text x="0px" y="0px" style="font-family:'Helvetica';font-size:16px;">LS: Speed</text>
        </g>
        <g transform="matrix(1,0,0,1,250,50)">
            <text x="0px" y="0px" style="font-family:'Helvetica';font-size:16px;">Map</text>
        </g>
        <g transform="matrix(1,0,0,1,806,-85)">
            <g>
                <text x="0px" y="0px" style="font-family:'Helvetica';font-size:16px;">R</text>
                <g transform="matrix(1,0,0,1,11.273,0)">
                    <text x="0px" y="0px" style="font-family:'Helvetica';font-size:16px;">T:<tspan x="14.219px " y="0px "> </tspan>Attack</text>
                </g>
            </g>
        </g>
        <g transform="matrix(1,0,0,1,724,-34)">
            <text x="0px" y="0px" style="font-family:'Helvetica';font-size:16px;">RB: Inventory</text>
        </g>
        <g transform="matrix(1,0,0,1,1033,44)">
            <text x="0px" y="0px" style="font-family:'Helvetica';font-size:16px;">Toggle Weapon</text>
        </g>
        <g transform="matrix(1,0,0,1,1033,74)">
            <text x="0px" y="0px" style="font-family:'Helvetica';font-size:16px;">Crouch</text>
        </g>
        <g transform="matrix(1,0,0,1,1033,104)">
            <text x="0px" y="0px" style="font-family:'Helvetica';font-size:16px;">Jump</text>
        </g>
        <g transform="matrix(1,0,0,1,1033,140)">
            <text x="0px" y="0px" style="font-family:'Helvetica';font-size:16px;">Use/Drop</text>
        </g>
        <g transform="matrix(1,0,0,1,772,93)">
            <text x="0px" y="0px" style="font-family:'Helvetica';font-size:16px;text-anchor:end;">RS: Force Creep</text>
        </g>
    </g>
    </g>
</svg>
